<svg xmlns="http://www.w3.org/2000/svg" xmlns:xlink="http://www.w3.org/1999/xlink" version="1.1" x="0px" y="0px" viewBox="0 0 100 125" enable-background="new 0 0 100 100" xml:space="preserve"><g><path d="M94.175,17.072c-7.351-0.886-14.588,0.768-20.316,5.287c-3.855-5.782-12.912-8.69-19.215-7.855   c-1.203,0.159-1.263,1.824,0,1.92c3.825,0.291,7.582,1.456,10.521,4.014c2.474,2.153,3.663,5.116,5.696,7.597   c0.583,0.711,1.761,0.934,2.606,0.689c0.221-0.064,0.446-0.146,0.64-0.27c0.222-0.141,0.414-0.32,0.588-0.512   c0.115-0.085,0.238-0.124,0.347-0.237c5.142-5.337,11.6-8.83,19.133-8.918C95.307,18.773,95.242,17.2,94.175,17.072z"/><path d="M38.029,78.292c-4.596-0.554-9.121,0.481-12.702,3.306c-2.41-3.615-8.073-5.433-12.013-4.911   c-0.752,0.1-0.789,1.141,0,1.201c2.392,0.182,4.74,0.91,6.578,2.51c1.547,1.346,2.29,3.198,3.561,4.749   c0.365,0.445,1.102,0.584,1.629,0.431c0.138-0.04,0.278-0.092,0.4-0.169c0.139-0.088,0.259-0.2,0.368-0.32   c0.072-0.053,0.149-0.078,0.217-0.148c3.215-3.336,7.253-5.521,11.962-5.575C38.737,79.356,38.697,78.373,38.029,78.292z"/><path d="M17.347,47.495c0.138-0.04,0.278-0.092,0.4-0.169c0.139-0.088,0.259-0.2,0.368-0.32c0.072-0.053,0.148-0.078,0.217-0.148   c3.215-3.337,7.253-5.521,11.962-5.576c0.708-0.008,0.667-0.991,0-1.072c-4.596-0.554-9.12,0.48-12.702,3.306   c-2.41-3.615-8.073-5.433-12.013-4.911c-0.752,0.1-0.79,1.14,0,1.2c2.391,0.182,4.74,0.911,6.577,2.51   c1.547,1.346,2.291,3.198,3.562,4.749C16.081,47.509,16.819,47.648,17.347,47.495z"/><path d="M69.147,51.12c-3.724-0.449-7.39,0.389-10.292,2.678c-1.953-2.929-6.541-4.402-9.734-3.979c-0.61,0.081-0.64,0.924,0,0.973   c1.938,0.147,3.841,0.738,5.33,2.034c1.254,1.091,1.856,2.592,2.886,3.848c0.295,0.36,0.892,0.473,1.32,0.349   c0.112-0.032,0.226-0.074,0.324-0.137c0.113-0.071,0.209-0.162,0.298-0.259c0.058-0.043,0.121-0.063,0.176-0.12   c2.605-2.704,5.877-4.473,9.693-4.518C69.72,51.982,69.687,51.186,69.147,51.12z"/></g></svg>