<svg xmlns="http://www.w3.org/2000/svg" xmlns:xlink="http://www.w3.org/1999/xlink" version="1.1" x="0px" y="0px" viewBox="0 0 30 37.5" xml:space="preserve"><g transform="translate(-330 -500)"><g xmlns="http://www.w3.org/2000/svg" xmlns:xlink="http://www.w3.org/1999/xlink"><circle cx="346" cy="509" r="2"/><path d="M356,515.869v-1.959l1.799-7.711L356,505.78V503h-11.915l-7.71-1.799l-0.42,1.799H333v12.666l-1.624,6.959l1.624,0.379    V526h12.838l0.035,0.008c1.259,2.374,3.753,3.992,6.627,3.992c4.143,0,7.5-3.357,7.5-7.5C360,519.622,358.378,517.127,356,515.869    z M332.577,521.879l4.545-19.477l19.476,4.544l-1.952,8.369c-0.681-0.203-1.399-0.315-2.146-0.315c-4.143,0-7.5,3.357-7.5,7.5    c0,0.828,0.14,1.623,0.388,2.368L332.577,521.879z M352.5,529c-3.59,0-6.5-2.91-6.5-6.5s2.91-6.5,6.5-6.5s6.5,2.91,6.5,6.5    S356.09,529,352.5,529z"/><polygon points="351.086,524.268 348.965,522.146 348.258,522.854 351.086,525.682 356.742,520.025 356.035,519.318   "/></g></g></svg>