<svg xmlns="http://www.w3.org/2000/svg" xmlns:xlink="http://www.w3.org/1999/xlink" version="1.2" baseProfile="tiny" x="0px" y="0px" viewBox="0 0 56.693 70.86625" xml:space="preserve"><path d="M46.43,40.5c-0.001-0.009-0.003-0.018-0.004-0.027c-0.001-0.006,0.001-0.012,0-0.018l-1.121-9.577  c-0.039-0.33-0.188-0.638-0.423-0.873L26.829,11.952c-0.323-0.323-0.79-0.452-1.234-0.399l-0.461-0.461  c-0.761-0.761-1.785-1.197-2.811-1.197c-0.887,0-1.708,0.332-2.311,0.935l-9.139,9.138c-1.382,1.381-1.357,3.923,0.053,5.332  l0.447,0.447c-0.062,0.443,0.072,0.908,0.413,1.249l18.052,18.053c0.243,0.244,0.565,0.394,0.908,0.426l9.787,0.912  c0.002,0,0.005,0,0.007,0c0.001,0,0.002,0,0.003,0l4.694,0.405c0.042,0.004,0.085,0.006,0.127,0.006c0.39,0,0.766-0.155,1.044-0.433  c0.309-0.308,0.465-0.737,0.427-1.172L46.43,40.5z M32.239,37.42l-13.14-13.14l5.432-5.432l12.998,12.998l-0.896,4.745L32.239,37.42  z M25.784,14.25l0.418,0.418L14.502,26.369l-0.418-0.418L25.784,14.25z M39.062,30.871L25.785,17.594l1.254-1.254l14.133,14.133  L39.062,30.871z M12.962,22.058l9.139-9.139c0.017-0.017,0.069-0.069,0.222-0.069c0.237,0,0.52,0.13,0.722,0.332l0.233,0.233  l-10.03,10.029l-0.233-0.233C12.73,22.926,12.74,22.28,12.962,22.058z M16.173,27.205l1.671-1.671l13.135,13.135l-0.531,2.812  L16.173,27.205z M40.115,43.38l-7.909-0.737l0.635-3.359l4.804-0.907c0.393-0.074,0.7-0.382,0.775-0.775l0.907-4.803l3.158-0.597  l0.923,7.886L40.115,43.38z"/></svg>