<svg xmlns="http://www.w3.org/2000/svg" xmlns:xlink="http://www.w3.org/1999/xlink" version="1.1" x="0px" y="0px" viewBox="0 0 432 540" enable-background="new 0 0 432 432" xml:space="preserve"><path d="M324,95.556c0,8.038-6.308,14.555-14.086,14.555H122.087c-7.78,0-14.087-6.517-14.087-14.555l0,0  C108,87.517,114.307,81,122.087,81h187.827C317.692,81,324,87.517,324,95.556L324,95.556z"/><path d="M243,57.212C243,65.38,236.701,72,228.938,72h-25.875C195.296,72,189,65.38,189,57.212l0,0  c0-8.167,6.295-14.787,14.062-14.787h25.875C236.701,42.425,243,49.045,243,57.212L243,57.212z"/><path d="M126,126h27c0,0,0,180,0,189s9,9,9,9h108c0,0,9,0,9-9s0-189,0-189h27v198c0,27-8.481,35.536-27,36l-126.591-0.522  C134.409,359.478,126,351,126,324C126,288,126,126,126,126z"/><rect x="171" y="126" width="18" height="180"/><rect x="207" y="126" width="18" height="180"/><rect x="243" y="126" width="18" height="180"/></svg>